{"title":"Chef Academy S01E07 PDTV XviD-MOMENTUM [Dodecahedron]","uid":5271719,"size":365821952,"categoryP":"video","categoryS":"tv_shows","magnet":"?xt=urn:btih:4c573da69654bfad5c6a469797d4470cd7bbb74a&amp;dn=Chef+Academy+S01E07+PDTV+XviD-MOMENTUM+%5BDodecahedron%5D&amp;tr=udp%3A%2F%2Ftracker.openbittorrent.com%3A80&amp;tr=udp%3A%2F%2Fopen.demonii.com%3A1337&amp;tr=udp%3A%2F%2Ftracker.coppersurfer.tk%3A6969&amp;tr=udp%3A%2F%2Fexodus.desync.com%3A6969","seeders":1,"leechers":0,"uploader":"Dodecahedron9","files":-1,"time":1263265885,"description":"Chef Academy S01E07 PDTV XviD-MOMENTUM [Dodecahedron]\n\nEpisode 7: Meat your maker\n \nIt's Meat Week at the Novelli Academy. With only two weeks to go until graduation, Chef Novelli decides to put the students to their hardest test to date.\n\n--\n\n   General\n\n      Format : AVI\n      Format/Info : Audio Video Interleave\n      File size : 349 MiB\n      Duration : 44mn 30s\n      Overall bit rate : 1 096 Kbps\n      Writing application : VirtualDubMod 1.5.10.2 (build 2540/release)\n      Writing library : VirtualDubMod build 2540/release\n\n   Video\n\n      Format : MPEG-4 Visual\n      Format profile : Streaming Video@L1\n      Format settings, BVOP : Yes\n      Format settings, QPel : No\n      Format settings, GMC : No warppoints\n      Format settings, Matrix : Default\n      Muxing mode : Packed bitstream\n      Codec ID : XVID\n      Codec ID/Hint : XviD\n      Duration : 44mn 30s\n      Bit rate : 960 Kbps\n      Width : 512 pixels\n      Height : 384 pixels\n      Display aspect ratio : 4/3\n      Frame rate : 29.970 fps\n      Resolution : 24 bits\n      Colorimetry : 4:2:0\n      Scan type : Progressive\n      Bits/(Pixel*Frame) : 0.163\n      Stream size : 306 MiB (88%)\n      Writing library : XviD 1.1.2 (UTC 2006-11-01)\n\n   Audio\n\n      Format : MPEG Audio\n      Format version : Version 1\n      Format profile : Layer 3\n      Codec ID : 55\n      Codec ID/Hint : MP3\n      Duration : 44mn 30s\n      Bit rate mode : Variable\n      Bit rate : 122 Kbps\n      Minimum bit rate : 128 Kbps\n      Channel(s) : 2 channels\n      Sampling rate : 48.0 KHz\n      Resolution : 16 bits\n      Stream size : 38.7 MiB (11%)\n      Alignment : Aligned on interleaves\n      Interleave, duration : 24 ms (0.72 video frame)\n      Interleave, preload duration : 526 ms\n      Writing library : LAME3.98r\n      Encoding settings : ABR","torrent":{"xt":"urn:btih:4c573da69654bfad5c6a469797d4470cd7bbb74a","amp;dn":"Chef+Academy+S01E07+PDTV+XviD-MOMENTUM+%5BDodecahedron%5D","amp;tr":["udp%3A%2F%2Ftracker.openbittorrent.com%3A80","udp%3A%2F%2Fopen.demonii.com%3A1337","udp%3A%2F%2Ftracker.coppersurfer.tk%3A6969","udp%3A%2F%2Fexodus.desync.com%3A6969"],"infoHash":"4c573da69654bfad5c6a469797d4470cd7bbb74a","infoHashBuffer":{"type":"Buffer","data":[76,87,61,166,150,84,191,173,92,106,70,151,151,212,71,12,215,187,183,74]},"announce":[],"urlList":[]}}